<?xml version="1.0" encoding="utf-8"?>
<!DOCTYPE svg PUBLIC "-//W3C//DTD SVG 1.1//EN" "http://www.w3.org/Graphics/SVG/1.1/DTD/svg11.dtd">
<svg version="1.1" xmlns="http://www.w3.org/2000/svg" x="0px" y="0px" viewBox="0 0 1000 1000" enable-background="new 0 0 1000 1000" xml:space="preserve">
<g><g><path d="M990,914.6v37.7c0,20.8-16.9,37.7-37.7,37.7h-37.7c-20.8,0-37.7-16.9-37.7-37.7s16.9-37.7,37.7-37.7c0-20.8,16.9-37.7,37.7-37.7C973.1,876.9,990,893.7,990,914.6z M952.3,423.1c-20.8,0-37.7,16.9-37.7,37.7v78.4c0,20.8,16.9,37.7,37.7,37.7c20.9,0,37.7-16.8,37.7-37.6v-78.4C990,440,973.1,423.1,952.3,423.1z M952.3,196.2c-20.8,0-37.7,16.9-37.7,37.7v78.4c0,20.8,16.9,37.7,37.7,37.7c20.9,0,37.7-16.9,37.7-37.8v-78.4C990,213,973.1,196.2,952.3,196.2z M952.3,650c-20.8,0-37.7,16.9-37.7,37.7v78.4c0,20.8,16.9,37.7,37.7,37.7c20.9,0,37.7-16.9,37.7-37.7v-78.4C990,666.8,973.1,650,952.3,650z M952.3,10h-37.7c-20.8,0-37.7,16.9-37.7,37.7s16.9,37.7,37.7,37.7c0,20.8,16.9,37.7,37.7,37.7c20.9,0,37.7-16.9,37.7-37.7V47.7C990,26.9,973.1,10,952.3,10z M687.7,85.4h78.4c20.8,0,37.7-16.9,37.7-37.7c0-20.8-16.9-37.7-37.7-37.7h-78.4C666.9,10,650,26.9,650,47.7S666.9,85.4,687.7,85.4z M233.9,85.4h78.4c20.8,0,37.7-16.9,37.7-37.7c0-20.8-16.9-37.7-37.7-37.7h-78.4c-20.9,0-37.7,16.9-37.7,37.7S213.1,85.4,233.9,85.4z M460.8,85.4h78.4c20.8,0,37.7-16.9,37.7-37.7c0-20.8-16.9-37.7-37.7-37.7h-78.4c-20.8,0-37.7,16.9-37.7,37.7S440,85.4,460.8,85.4z M47.7,123.1c20.8,0,37.7-16.9,37.7-37.7c20.8,0,37.7-16.9,37.7-37.7c0-20.8-16.9-37.7-37.7-37.7H47.7C26.9,10,10,26.9,10,47.7v37.7C10,106.2,26.9,123.1,47.7,123.1z M47.7,350c20.8,0,37.7-16.9,37.7-37.7v-78.4c0-20.8-16.9-37.7-37.7-37.7S10,213,10,233.9v78.4C10,333.1,26.9,350,47.7,350z M766.1,914.6h-78.4c-20.8,0-37.7,16.9-37.7,37.7s16.9,37.7,37.7,37.7h78.4c20.8,0,37.7-16.9,37.7-37.7S786.9,914.6,766.1,914.6z M820.5,163.1l-233.2,29.1c-10.3,1.3-12.7,8.3-5.4,15.6l79.9,79.9L411.9,537.7H85.4v-76.9c0-20.8-16.9-37.7-37.7-37.7C26.9,423.1,10,440,10,460.8v78.4c0,6.7,2.2,12.7,5.3,18.1c-3.1,5.4-5.3,11.4-5.3,18.1v112.3v78.4v148.5v37.7c0,20.8,16.9,37.7,37.7,37.7h37.7h148.5h78.4h112.3c6.7,0,12.7-2.2,18.1-5.3c5.4,3,11.4,5.2,18,5.2h78.4c20.8,0,37.7-16.9,37.7-37.7s-16.9-37.7-37.7-37.7h-76.9V588.2l249.9-250L792,418c7.4,7.3,14.4,4.9,15.7-5.4l29.1-233.2C838.2,169.2,830.8,161.8,820.5,163.1z"/></g></g>
</svg>